<?xml version="1.0" encoding="UTF-8"?>
<svg xmlns="http://www.w3.org/2000/svg" xmlns:xlink="http://www.w3.org/1999/xlink" width="40px" height="40px" viewBox="0 0 40 40" version="1.1">
<g id="surface1">
<path style="fill-rule:nonzero;fill:rgb(0%,0%,0%);fill-opacity:1;stroke-width:0.5;stroke-linecap:butt;stroke-linejoin:miter;stroke:rgb(0%,0%,0%);stroke-opacity:1;stroke-miterlimit:4;" d="M 692.21669 102.776038 L 691.83186 102.198793 L 691.543237 102.006377 L 691.158406 101.813962 L 690.773576 101.236716 L 690.484953 101.044301 L 690.19633 100.755678 L 689.8115 100.178433 L 689.234254 99.793602 L 689.041839 99.504979 L 688.753216 99.216356 L 688.17597 98.831526 L 687.983555 98.542903 L 687.79114 98.158073 L 687.213894 97.773242 L 686.829063 97.195996 L 686.540441 97.003581 L 686.15561 96.811166 L 685.963195 96.522543 L 690.003915 96.522543 L 694.044635 97.484619 L 728.005924 107.009173 C 750.710921 113.358876 771.972805 120.47824 791.983989 128.463472 C 811.995173 136.544912 829.312545 144.433937 843.839895 152.226754 C 858.271037 160.019571 871.355273 168.10101 883.18881 176.18245 C 895.022347 184.360098 905.701393 192.73016 915.225947 201.196431 C 924.750501 209.758909 933.312979 218.99484 941.009588 229.000432 C 948.706197 239.006024 954.67107 248.338163 959.000412 256.996849 C 963.329755 265.655534 966.504607 274.31422 968.524967 282.972905 C 970.545327 291.631591 971.314987 300.290276 971.026365 309.04517 C 970.641534 317.703855 969.19842 326.651163 966.504607 335.983302 C 963.810793 345.315441 960.154904 354.64758 955.536938 363.979719 C 950.822765 373.311858 944.9541 382.643997 938.027152 391.976136 C 931.003996 401.308274 923.596009 409.96696 915.803192 417.759777 C 907.914168 425.552594 897.523745 434.211279 884.535717 443.543418 C 871.547688 452.875557 857.789999 461.341828 843.455064 469.038437 C 829.120129 476.638839 813.149665 483.85441 795.543671 490.492736 C 777.841469 497.131061 767.547254 500.979366 764.468611 502.03765 C 761.486174 502.999726 759.369607 503.673179 758.0227 503.961802 L 756.00234 504.539048 L 754.463018 505.020086 L 753.019904 505.501124 L 751.480582 505.982162 L 750.037468 506.4632 L 748.979184 506.84803 L 748.017108 507.040446 L 748.017108 505.020086 L 748.979184 504.827671 L 750.037468 504.539048 L 750.229883 504.154217 L 750.807129 503.769387 L 751.191959 503.192141 L 751.769205 502.807311 L 752.154036 502.230065 L 752.538866 502.03765 L 752.827489 501.845234 L 753.019904 501.460404 L 753.212319 501.171781 L 753.789565 500.786951 C 753.885773 500.594535 754.366811 500.113497 755.232679 499.247629 C 756.098548 498.38176 760.716513 492.897926 769.182784 482.796126 C 777.745262 472.598119 784.768418 462.303904 790.156044 451.817273 C 795.736086 441.234436 799.488183 431.325051 801.508543 421.992912 C 803.528903 412.660773 804.202356 404.675541 803.528903 398.037215 C 802.85545 391.302682 801.316128 385.530225 799.007145 380.527429 C 796.698162 375.524633 793.715726 371.387705 790.156044 368.212854 C 786.69257 365.038003 782.459435 362.536605 777.456639 360.516245 C 772.453843 358.495885 766.007932 357.533809 758.0227 357.533809 C 750.037468 357.533809 740.993952 359.169338 730.98836 362.536605 C 720.982768 365.807664 710.880968 370.618045 700.490545 376.967747 C 690.19633 383.31745 680.671776 390.148191 672.01309 397.45997 L 659.025062 408.523846 L 658.832647 408.812469 L 658.544024 409.004884 L 658.159194 409.197299 L 657.966778 409.485922 L 656.523664 409.774545 L 654.984342 409.96696 L 654.791927 409.004884 C 654.599512 408.33143 652.194321 404.675541 647.480148 398.037215 C 642.862182 391.302682 638.244217 386.396094 633.818666 383.221242 C 629.296908 380.046391 624.871358 378.314654 620.542015 378.026031 C 616.212672 377.641201 611.306084 378.795692 606.014665 381.489505 C 600.627038 384.183319 596.009073 387.454378 591.968353 391.495097 C 588.023841 395.535817 582.347591 402.655181 575.035812 413.045604 C 567.627826 423.339819 557.237403 440.945813 543.768337 465.767378 L 523.468529 502.999726 L 522.987491 503.961802 L 522.506453 505.020086 L 522.025415 505.982162 L 521.544377 507.040446 L 520.967131 508.002522 L 520.486093 508.964598 L 519.524017 507.040446 L 519.042979 505.982162 L 518.465733 505.020086 L 518.177111 504.827671 L 517.984695 504.539048 L 517.79228 504.154217 L 517.503657 503.961802 L 517.022619 502.999726 C 516.637789 502.326272 511.634993 492.801718 502.014231 474.522271 C 492.297262 456.146616 483.542368 440.464775 475.460929 427.476746 C 467.475696 414.488718 460.260125 404.386918 453.814215 397.171347 C 447.272097 390.051983 441.692055 385.145395 436.977882 382.547789 C 432.359916 379.853976 428.030573 378.314654 423.989853 378.026031 C 420.045341 377.641201 416.966697 377.833616 415.042545 378.507069 C 413.022185 379.180522 409.847334 381.200882 405.517991 384.471941 C 401.188648 387.839208 396.859305 392.938212 392.529963 399.768953 L 385.987845 409.96696 L 384.54473 409.774545 L 383.005408 409.485922 L 382.812993 409.197299 L 382.235747 408.812469 L 382.043332 408.523846 L 368.959096 397.45997 C 360.300411 390.148191 350.872064 383.31745 340.481642 376.967747 C 330.187427 370.618045 320.855288 366.000079 312.485225 363.017643 C 304.21137 360.035207 296.514761 358.207262 289.491604 357.533809 C 282.468448 356.860355 276.022538 357.148978 269.961458 358.495885 C 263.996586 359.842791 259.186205 361.574529 255.530316 363.787304 C 251.874426 365.903871 250.046481 367.346986 250.046481 368.020439 C 250.046481 368.693892 249.661651 368.982515 248.988198 368.982515 C 248.314744 368.982515 246.583007 371.483913 243.792986 376.486709 C 240.906758 381.489505 238.982605 386.299886 238.020529 391.014059 C 236.962246 395.632025 236.866038 401.981728 237.539491 409.96696 C 238.212945 417.952192 240.137097 426.707085 243.504363 436.039224 C 246.87163 445.371363 251.682011 454.79971 258.031714 464.516679 C 264.285209 474.137441 270.731119 482.603711 277.177029 489.819282 C 283.719147 496.938646 287.086414 500.594535 287.182622 500.786951 L 287.759867 501.171781 L 287.952283 501.460404 L 288.240905 501.845234 L 288.818151 502.230065 L 289.202982 502.807311 L 289.780227 503.192141 L 290.165058 503.769387 L 290.453681 503.961802 L 290.838511 504.154217 L 291.030926 504.539048 L 291.993003 504.827671 L 292.955079 505.020086 L 292.955079 507.040446 L 291.993003 506.84803 L 291.030926 506.4632 L 287.952283 505.501124 L 286.509168 505.020086 L 284.969846 504.539048 L 283.526732 503.961802 C 282.468448 503.673179 278.620144 502.518688 271.981818 500.498328 C 265.343493 498.477968 253.509956 493.95621 236.481207 487.029261 C 219.452459 480.006105 204.347863 472.790534 190.975004 465.478755 C 177.698353 458.166976 165.479986 450.470367 154.512318 442.485135 C 143.544649 434.499902 134.020095 426.610878 126.227278 418.818061 C 118.338254 410.929036 111.026475 402.558973 104.195734 393.80408 C 97.461201 384.952979 91.400121 375.620841 86.204909 365.807664 C 81.105906 355.898279 77.161393 346.18131 74.46758 336.46434 C 71.869974 326.843579 70.330653 317.51144 70.04203 308.467924 C 69.657199 299.520615 70.523068 290.86193 72.543428 282.491867 C 74.46758 274.121804 77.834847 265.366911 82.452812 256.034772 C 87.166986 246.702634 93.420481 237.081872 101.213298 227.172487 C 109.102322 217.35931 118.145838 208.027171 128.536261 198.983655 C 138.830476 190.036347 149.317106 181.8587 159.996152 174.546921 C 170.675197 167.138934 183.47081 159.538532 198.479199 151.457093 C 213.487587 143.47186 231.189788 135.486628 251.489596 127.501396 C 271.789403 119.516164 292.858871 112.493008 314.505585 106.528135 L 347.02376 97.484619 L 349.04412 97.003581 L 350.968272 96.522543 L 355.008992 96.522543 L 354.816577 96.811166 L 354.239331 97.195996 L 354.046916 97.484619 L 353.758293 97.773242 L 353.181047 98.158073 L 352.988632 98.542903 L 352.796217 98.831526 L 352.218971 99.216356 L 351.83414 99.793602 L 351.545518 99.986017 L 351.160687 100.178433 L 350.775857 100.755678 L 350.487234 101.044301 L 350.198611 101.236716 L 349.81378 101.813962 L 349.236535 102.198793 L 349.04412 102.487415 L 338.846112 114.80199 C 331.919164 122.979638 326.627745 130.676247 322.971855 137.988026 C 319.315966 145.299805 316.814568 151.649508 315.467661 157.037134 C 314.120754 162.328553 313.639716 167.812387 314.024547 173.488637 C 314.31317 179.164886 315.756284 184.744928 318.161474 190.228762 C 320.75908 195.712596 323.452893 200.330562 326.531537 203.986452 C 329.513973 207.642341 334.324354 211.683061 340.96268 216.012404 C 347.697213 220.341746 355.49003 223.997636 364.533546 226.980072 C 373.480854 229.962508 383.967485 231.50183 395.993437 231.50183 C 408.019389 231.50183 416.293244 230.347339 421.007417 228.038356 C 425.625383 225.633165 429.954726 222.939352 433.80303 219.764501 C 437.555127 216.589649 441.788262 211.490646 446.502436 204.46749 C 451.120401 197.540541 455.161121 189.651517 458.528388 180.992831 C 461.799447 172.334146 464.300845 155.305397 466.032582 130.002794 C 467.668112 104.700191 469.111226 89.018349 470.16951 83.245892 C 471.420209 77.377227 474.59506 79.397587 479.790271 89.210764 C 484.889275 99.023941 488.064126 105.854682 489.218618 109.510571 C 490.373109 113.166461 494.125206 114.41716 500.474909 113.166461 C 506.824612 112.108177 514.713636 111.627139 524.045775 112.01197 C 533.377914 112.300592 540.01624 112.974046 543.960752 113.839914 C 548.001472 114.609575 551.561154 110.953686 554.832213 102.968454 C 557.910856 94.983221 561.181915 88.15248 564.452974 82.476231 C 567.820241 76.799982 570.514054 83.3421 572.534414 102.006377 C 574.458567 120.670655 575.805473 136.352497 576.478927 148.955695 C 577.15238 161.6551 579.17274 172.334146 582.540006 180.992831 C 585.811065 189.651517 589.563162 197.059503 593.796298 203.216791 C 597.933225 209.374078 601.877737 214.376874 605.533627 218.032764 C 609.189516 221.688653 613.711274 224.863504 619.002693 227.46111 C 624.294112 230.154923 632.952798 231.50183 644.97875 231.50183 C 657.004702 231.50183 667.491332 229.962508 676.534848 226.980072 C 685.482157 223.997636 692.793936 220.630369 698.470185 216.97448 C 704.146435 213.31859 709.053023 209.277871 713.189951 204.756113 C 717.423086 200.234354 720.694145 195.135351 723.003128 189.459101 C 725.31211 183.87906 726.466602 177.529357 726.466602 170.506201 C 726.466602 163.483045 725.31211 156.652304 723.003128 150.013978 C 720.694145 143.375653 717.134463 136.352497 712.516497 129.040718 C 707.802324 121.632731 703.376774 115.475444 699.047431 110.472648 C 694.62188 105.469852 692.409105 102.968454 692.21669 102.776038 Z M 692.21669 102.776038 " transform="matrix(0.0406023,0,0,0.0406023,-1.187617,7.436432)"/>
<path style="fill-rule:nonzero;fill:rgb(100%,100%,100%);fill-opacity:1;stroke-width:0.5;stroke-linecap:butt;stroke-linejoin:miter;stroke:rgb(100%,100%,100%);stroke-opacity:1;stroke-miterlimit:4;" d="M 963.810793 190.517385 L 964.003209 190.998423 L 975.163292 205.044735 C 982.763694 214.376874 989.209604 223.997636 994.501023 234.003228 C 999.792442 244.00882 1004.121785 254.687866 1007.489052 266.040365 C 1010.856318 277.296656 1012.876678 285.666719 1013.453924 290.958138 C 1014.127377 296.345764 1014.319792 304.138581 1014.03117 314.529004 C 1013.646339 324.823219 1012.203225 335.309849 1009.509412 345.988895 C 1006.815598 356.66794 1002.967294 367.15457 997.964497 377.544993 C 992.961701 387.839208 990.364096 393.323042 989.979265 393.996496 L 989.498227 394.958572 L 989.209604 395.247195 L 988.824774 395.82444 L 988.536151 396.016855 L 987.958905 396.978932 C 987.670282 397.652385 987.38166 398.037215 987.189244 398.037215 L 986.996829 398.037215 L 986.804414 398.518254 C 986.611999 398.806876 986.419583 398.999292 986.227168 398.999292 L 986.034753 398.999292 L 985.842338 399.961368 L 985.457507 401.019652 L 984.976469 401.019652 L 984.784054 401.981728 C 984.591639 402.655181 980.454711 407.850392 972.469479 417.471154 C 964.484247 427.188123 955.440731 436.712678 945.242723 446.044816 L 930.04192 459.994921 L 928.983636 459.994921 L 928.791221 460.475959 L 928.502598 460.956997 L 928.02156 460.956997 L 927.829145 461.534243 L 927.540522 462.015281 L 927.155691 462.207696 L 926.963276 462.496319 L 926.0012 462.784942 L 925.039124 462.977357 L 924.846708 463.458395 C 924.558086 463.843226 924.36567 464.035641 924.173255 464.035641 L 923.98084 464.035641 L 923.788425 464.516679 C 923.596009 464.805302 917.823552 468.846022 906.471054 476.542631 C 895.118555 484.143033 882.226734 491.93585 867.795591 499.824874 C 853.268241 507.617691 836.143285 515.506716 816.516931 523.491948 C 796.79437 531.47718 775.532487 538.788959 752.538866 545.523493 C 729.545246 552.161818 705.300926 557.838068 679.998323 562.456033 C 654.791927 567.170206 629.489324 570.633681 603.994305 573.038871 C 578.691702 575.347854 551.176323 576.502345 521.544377 576.502345 C 491.816223 576.502345 466.802243 575.636477 446.502436 574.000947 C 426.202629 572.365418 403.786254 569.479189 379.541934 565.534677 C 355.201407 561.493957 331.534333 556.491161 308.540713 550.526289 C 285.547092 544.465209 264.477624 538.019298 245.524723 530.996142 C 226.475615 523.972986 208.003753 515.987754 190.012928 507.040446 C 172.022104 497.99693 156.532678 489.338244 143.544649 480.968181 C 130.460413 472.694326 119.204122 464.420471 109.487153 456.242824 L 94.959803 444.024456 L 94.478764 443.832041 L 93.997726 443.543418 L 93.997726 442.966173 L 93.516688 442.773757 L 93.03565 442.485135 L 92.843235 442.196512 L 92.458404 442.004096 L 92.169782 441.811681 L 91.784951 441.234436 L 91.496328 441.04202 L 91.207705 440.753397 L 90.822875 440.176152 L 90.245629 439.791321 L 89.957006 439.502698 L 89.764591 439.214076 C 89.572176 439.02166 88.513892 437.963377 86.493532 436.039224 C 84.473172 434.018864 78.989338 427.476746 70.04203 416.509078 C 60.998514 405.54141 53.301904 393.707873 46.952202 381.008467 C 40.698706 368.309062 36.176948 356.66794 33.483135 345.988895 C 30.789322 335.309849 29.538623 322.995274 29.538623 309.04517 C 29.538623 294.998857 30.789322 282.876698 33.483135 272.486275 C 36.176948 262.19206 39.929046 251.994053 44.835634 241.98846 L 51.954998 226.980072 L 52.243621 226.499034 C 52.436036 226.210411 52.628451 226.017996 52.820866 226.017996 L 53.013281 226.017996 L 60.806098 214.473082 C 65.905102 206.87268 73.409296 197.732956 83.222473 187.246326 C 93.03565 176.759696 104.003319 166.850311 116.029271 157.518172 C 127.959015 148.186034 141.812912 138.853895 157.494754 129.521756 C 173.176595 120.189617 189.53189 111.627139 206.464431 104.026737 C 223.493179 96.330128 241.195381 89.306972 259.474828 82.957269 C 277.850483 76.703774 298.823743 70.642694 322.490817 64.966445 C 346.157891 59.290195 370.787041 54.67223 396.474475 51.01634 C 422.161909 47.360451 447.175889 44.859053 471.516416 43.512146 C 495.856943 42.165239 522.795076 41.972824 552.52323 43.031108 C 582.155176 43.993184 609.86297 46.205959 635.454196 49.477018 C 661.14163 52.844285 685.866987 57.173628 709.534061 62.465047 C 733.201135 67.852673 756.483378 74.298584 779.476999 81.995193 C 802.470619 89.691802 823.347672 97.86945 842.01195 106.528135 C 860.676228 115.186821 877.12773 124.037922 891.462665 132.98523 C 905.7976 142.028746 916.765269 149.436733 924.173255 155.20919 C 931.773657 161.077854 939.374059 167.523765 946.97446 174.546921 C 954.67107 181.473869 959.289035 185.803212 961.020772 187.534949 C 962.656302 189.170479 963.618378 190.132555 963.810793 190.517385 Z M 963.810793 190.517385 " transform="matrix(0.0406023,0,0,0.0406023,-1.187617,7.436432)"/>
<path style="fill-rule:nonzero;fill:rgb(99.607843%,99.607843%,99.607843%);fill-opacity:1;stroke-width:0.5;stroke-linecap:butt;stroke-linejoin:miter;stroke:rgb(99.607843%,99.607843%,99.607843%);stroke-opacity:1;stroke-miterlimit:4;" d="M 951.496218 205.814396 L 951.977256 206.006812 L 952.169672 206.968888 L 952.458295 208.027171 L 952.843125 208.219587 L 953.03554 208.50821 L 962.175264 220.822785 C 968.428759 228.904224 973.816386 237.851533 978.530559 247.472295 C 983.148524 257.189264 986.708206 266.521403 989.017189 275.468711 C 991.326172 284.512227 992.480663 295.864726 992.480663 309.526208 C 992.480663 323.187689 991.133757 335.021226 988.536151 345.026818 C 985.842338 355.032411 983.34094 362.536605 981.031957 367.539401 C 978.626766 372.542197 977.376067 375.332218 977.183652 376.005671 L 976.991237 376.967747 L 976.510199 377.160163 C 976.125368 377.352578 976.029161 377.641201 976.029161 377.833616 L 976.029161 378.026031 L 975.836746 378.507069 C 975.64433 378.795692 974.201216 381.200882 971.507403 385.530225 C 968.813589 389.859568 963.810793 396.690309 956.499014 406.022448 C 949.187236 415.354587 941.490626 423.628442 933.505394 431.036428 L 921.479442 442.004096 L 921.190819 442.196512 L 920.805988 442.773757 L 920.228743 443.158588 L 920.036328 443.543418 L 920.036328 444.024456 L 919.459082 444.216872 L 918.978044 444.505495 L 918.015968 444.986533 C 917.342514 445.371363 914.648701 447.295515 910.030735 451.047613 C 905.316562 454.703502 895.888216 460.956997 881.841904 469.808098 C 867.603176 478.562991 851.440296 487.221677 833.160849 495.784154 C 815.073817 504.250425 795.639879 512.043242 774.955241 518.97019 C 754.366811 525.993346 732.142851 532.150634 708.475777 537.53826 C 684.808704 542.829679 660.371969 547.159022 634.973158 550.526289 C 609.670554 553.797348 581.962761 556.010123 552.042192 556.972199 C 522.025415 558.030483 495.18349 557.838068 471.516416 556.491161 C 447.849342 555.144254 423.989853 552.835271 400.034157 549.468005 C 375.982252 546.196946 352.026556 541.675188 327.974651 535.998938 C 304.018955 530.322689 281.121542 523.684363 259.474828 515.987754 C 237.828114 508.291145 218.490383 500.305913 201.461635 492.032057 C 184.529094 483.661995 169.328291 475.195724 155.955432 466.537039 C 142.678781 457.878353 130.652829 449.027253 119.973783 440.176152 L 104.003319 426.995708 L 103.810903 426.51467 C 103.618488 426.12984 102.079166 424.398103 99.192938 421.223251 C 96.402917 418.0484 91.496328 411.98732 84.473172 403.040012 C 77.546224 393.996496 71.388936 384.568149 66.193725 374.754972 C 61.094721 364.941795 57.150209 355.032411 54.456396 345.026818 C 51.85879 335.021226 50.319468 324.630804 50.030845 314.047966 C 49.646015 303.36892 50.127053 294.132989 51.47396 286.532587 C 52.820866 278.835978 55.610887 269.503839 59.844022 258.536171 L 66.00131 241.98846 L 66.482348 241.796045 C 66.867178 241.60363 66.963386 241.411215 66.963386 241.218799 L 66.963386 241.026384 L 75.525864 228.230771 C 81.202113 219.764501 87.840439 211.202023 95.537048 202.543337 C 103.13745 193.788444 112.662004 184.841136 124.014503 175.508997 C 135.367002 166.176858 147.873992 157.325757 161.535474 148.955695 C 175.196955 140.681839 190.301551 132.504192 207.041677 124.51896 C 223.685594 116.533728 241.965042 109.029533 261.976226 102.006377 C 281.98741 94.983221 304.018955 88.633519 327.974651 82.957269 C 352.026556 77.377227 375.982252 72.855469 400.034157 69.488203 C 423.989853 66.120936 447.849342 63.811953 471.516416 62.465047 C 495.18349 61.214348 522.025415 61.021932 552.042192 61.984009 C 581.962761 63.042292 609.670554 65.15886 634.973158 68.526127 C 660.371969 71.797186 684.808704 76.126528 708.475777 81.514155 C 732.142851 86.805574 754.366811 92.962861 774.955241 99.986017 C 795.639879 107.009173 814.688987 114.513368 832.006358 122.4986 C 849.323729 130.483832 864.909363 138.757687 878.76326 147.223957 C 892.617157 155.690228 904.354486 163.964083 914.167663 171.7569 C 924.077047 179.645924 932.639525 187.150119 940.047512 194.461897 C 947.359291 201.869884 951.207596 205.621981 951.496218 205.814396 Z M 951.496218 205.814396 " transform="matrix(0.0406023,0,0,0.0406023,-1.187617,7.436432)"/>
<path style="fill-rule:nonzero;fill:rgb(1.176471%,1.176471%,1.176471%);fill-opacity:1;stroke-width:0.5;stroke-linecap:butt;stroke-linejoin:miter;stroke:rgb(1.176471%,1.176471%,1.176471%);stroke-opacity:1;stroke-miterlimit:4;" d="M 692.21669 102.776038 L 691.83186 102.198793 L 691.543237 102.006377 L 691.158406 101.813962 L 690.773576 101.236716 L 690.484953 101.044301 L 690.19633 100.755678 L 689.8115 100.178433 L 689.234254 99.793602 L 689.041839 99.504979 L 688.753216 99.216356 L 688.17597 98.831526 L 687.983555 98.542903 L 687.79114 98.158073 L 687.213894 97.773242 L 686.829063 97.195996 L 686.540441 97.003581 L 686.15561 96.811166 L 685.963195 96.522543 L 690.003915 96.522543 L 694.044635 97.484619 L 728.005924 107.009173 C 750.710921 113.358876 771.972805 120.47824 791.983989 128.463472 C 811.995173 136.544912 829.312545 144.433937 843.839895 152.226754 C 858.271037 160.019571 871.355273 168.10101 883.18881 176.18245 C 895.022347 184.360098 905.701393 192.73016 915.225947 201.196431 C 924.750501 209.758909 933.312979 218.99484 941.009588 229.000432 C 948.706197 239.006024 954.67107 248.338163 959.000412 256.996849 C 963.329755 265.655534 966.504607 274.31422 968.524967 282.972905 C 970.545327 291.631591 971.314987 300.290276 971.026365 309.04517 C 970.641534 317.703855 969.19842 326.651163 966.504607 335.983302 C 963.810793 345.315441 960.154904 354.64758 955.536938 363.979719 C 950.822765 373.311858 944.9541 382.643997 938.027152 391.976136 C 931.003996 401.308274 923.596009 409.96696 915.803192 417.759777 C 907.914168 425.552594 897.523745 434.211279 884.535717 443.543418 C 871.547688 452.875557 857.789999 461.341828 843.455064 469.038437 C 829.120129 476.638839 813.149665 483.85441 795.543671 490.492736 C 777.841469 497.131061 767.547254 500.979366 764.468611 502.03765 C 761.486174 502.999726 759.369607 503.673179 758.0227 503.961802 L 756.00234 504.539048 L 754.463018 505.020086 L 753.019904 505.501124 L 751.480582 505.982162 L 750.037468 506.4632 L 748.979184 506.84803 L 748.017108 507.040446 L 748.017108 505.020086 L 748.979184 504.827671 L 750.037468 504.539048 L 750.229883 504.154217 L 750.807129 503.769387 L 751.191959 503.192141 L 751.769205 502.807311 L 752.154036 502.230065 L 752.538866 502.03765 L 752.827489 501.845234 L 753.019904 501.460404 L 753.212319 501.171781 L 753.789565 500.786951 C 753.885773 500.594535 754.366811 500.113497 755.232679 499.247629 C 756.098548 498.38176 760.716513 492.897926 769.182784 482.796126 C 777.745262 472.598119 784.768418 462.303904 790.156044 451.817273 C 795.736086 441.234436 799.488183 431.325051 801.508543 421.992912 C 803.528903 412.660773 804.202356 404.675541 803.528903 398.037215 C 802.85545 391.302682 801.316128 385.530225 799.007145 380.527429 C 796.698162 375.524633 793.715726 371.387705 790.156044 368.212854 C 786.69257 365.038003 782.459435 362.536605 777.456639 360.516245 C 772.453843 358.495885 766.007932 357.533809 758.0227 357.533809 C 750.037468 357.533809 740.993952 359.169338 730.98836 362.536605 C 720.982768 365.807664 710.880968 370.618045 700.490545 376.967747 C 690.19633 383.31745 680.671776 390.148191 672.01309 397.45997 L 659.025062 408.523846 L 658.832647 408.812469 L 658.544024 409.004884 L 658.159194 409.197299 L 657.966778 409.485922 L 656.523664 409.774545 L 654.984342 409.96696 L 654.791927 409.004884 C 654.599512 408.33143 652.194321 404.675541 647.480148 398.037215 C 642.862182 391.302682 638.244217 386.396094 633.818666 383.221242 C 629.296908 380.046391 624.871358 378.314654 620.542015 378.026031 C 616.212672 377.641201 611.306084 378.795692 606.014665 381.489505 C 600.627038 384.183319 596.009073 387.454378 591.968353 391.495097 C 588.023841 395.535817 582.347591 402.655181 575.035812 413.045604 C 567.627826 423.339819 557.237403 440.945813 543.768337 465.767378 L 523.468529 502.999726 L 522.987491 503.961802 L 522.506453 505.020086 L 522.025415 505.982162 L 521.544377 507.040446 L 520.967131 508.002522 L 520.486093 508.964598 L 519.524017 507.040446 L 519.042979 505.982162 L 518.465733 505.020086 L 518.177111 504.827671 L 517.984695 504.539048 L 517.79228 504.154217 L 517.503657 503.961802 L 517.022619 502.999726 C 516.637789 502.326272 511.634993 492.801718 502.014231 474.522271 C 492.297262 456.146616 483.542368 440.464775 475.460929 427.476746 C 467.475696 414.488718 460.260125 404.386918 453.814215 397.171347 C 447.272097 390.051983 441.692055 385.145395 436.977882 382.547789 C 432.359916 379.853976 428.030573 378.314654 423.989853 378.026031 C 420.045341 377.641201 416.966697 377.833616 415.042545 378.507069 C 413.022185 379.180522 409.847334 381.200882 405.517991 384.471941 C 401.188648 387.839208 396.859305 392.938212 392.529963 399.768953 L 385.987845 409.96696 L 384.54473 409.774545 L 383.005408 409.485922 L 382.812993 409.197299 L 382.235747 408.812469 L 382.043332 408.523846 L 368.959096 397.45997 C 360.300411 390.148191 350.872064 383.31745 340.481642 376.967747 C 330.187427 370.618045 320.855288 366.000079 312.485225 363.017643 C 304.21137 360.035207 296.514761 358.207262 289.491604 357.533809 C 282.468448 356.860355 276.022538 357.148978 269.961458 358.495885 C 263.996586 359.842791 259.186205 361.574529 255.530316 363.787304 C 251.874426 365.903871 250.046481 367.346986 250.046481 368.020439 C 250.046481 368.693892 249.661651 368.982515 248.988198 368.982515 C 248.314744 368.982515 246.583007 371.483913 243.792986 376.486709 C 240.906758 381.489505 238.982605 386.299886 238.020529 391.014059 C 236.962246 395.632025 236.866038 401.981728 237.539491 409.96696 C 238.212945 417.952192 240.137097 426.707085 243.504363 436.039224 C 246.87163 445.371363 251.682011 454.79971 258.031714 464.516679 C 264.285209 474.137441 270.731119 482.603711 277.177029 489.819282 C 283.719147 496.938646 287.086414 500.594535 287.182622 500.786951 L 287.759867 501.171781 L 287.952283 501.460404 L 288.240905 501.845234 L 288.818151 502.230065 L 289.202982 502.807311 L 289.780227 503.192141 L 290.165058 503.769387 L 290.453681 503.961802 L 290.838511 504.154217 L 291.030926 504.539048 L 291.993003 504.827671 L 292.955079 505.020086 L 292.955079 507.040446 L 291.993003 506.84803 L 291.030926 506.4632 L 287.952283 505.501124 L 286.509168 505.020086 L 284.969846 504.539048 L 283.526732 503.961802 C 282.468448 503.673179 278.620144 502.518688 271.981818 500.498328 C 265.343493 498.477968 253.509956 493.95621 236.481207 487.029261 C 219.452459 480.006105 204.347863 472.790534 190.975004 465.478755 C 177.698353 458.166976 165.479986 450.470367 154.512318 442.485135 C 143.544649 434.499902 134.020095 426.610878 126.227278 418.818061 C 118.338254 410.929036 111.026475 402.558973 104.195734 393.80408 C 97.461201 384.952979 91.400121 375.620841 86.204909 365.807664 C 81.105906 355.898279 77.161393 346.18131 74.46758 336.46434 C 71.869974 326.843579 70.330653 317.51144 70.04203 308.467924 C 69.657199 299.520615 70.523068 290.86193 72.543428 282.491867 C 74.46758 274.121804 77.834847 265.366911 82.452812 256.034772 C 87.166986 246.702634 93.420481 237.081872 101.213298 227.172487 C 109.102322 217.35931 118.145838 208.027171 128.536261 198.983655 C 138.830476 190.036347 149.317106 181.8587 159.996152 174.546921 C 170.675197 167.138934 183.47081 159.538532 198.479199 151.457093 C 213.487587 143.47186 231.189788 135.486628 251.489596 127.501396 C 271.789403 119.516164 292.858871 112.493008 314.505585 106.528135 L 347.02376 97.484619 L 349.04412 97.003581 L 350.968272 96.522543 L 355.008992 96.522543 L 354.816577 96.811166 L 354.239331 97.195996 L 354.046916 97.484619 L 353.758293 97.773242 L 353.181047 98.158073 L 352.988632 98.542903 L 352.796217 98.831526 L 352.218971 99.216356 L 351.83414 99.793602 L 351.545518 99.986017 L 351.160687 100.178433 L 350.775857 100.755678 L 350.487234 101.044301 L 350.198611 101.236716 L 349.81378 101.813962 L 349.236535 102.198793 L 349.04412 102.487415 L 338.846112 114.80199 C 331.919164 122.979638 326.627745 130.676247 322.971855 137.988026 C 319.315966 145.299805 316.814568 151.649508 315.467661 157.037134 C 314.120754 162.328553 313.639716 167.812387 314.024547 173.488637 C 314.31317 179.164886 315.756284 184.744928 318.161474 190.228762 C 320.75908 195.712596 323.452893 200.330562 326.531537 203.986452 C 329.513973 207.642341 334.324354 211.683061 340.96268 216.012404 C 347.697213 220.341746 355.49003 223.997636 364.533546 226.980072 C 373.480854 229.962508 383.967485 231.50183 395.993437 231.50183 C 408.019389 231.50183 416.293244 230.347339 421.007417 228.038356 C 425.625383 225.633165 429.954726 222.939352 433.80303 219.764501 C 437.555127 216.589649 441.788262 211.490646 446.502436 204.46749 C 451.120401 197.540541 455.161121 189.651517 458.528388 180.992831 C 461.799447 172.334146 464.300845 155.305397 466.032582 130.002794 C 467.668112 104.700191 469.111226 89.018349 470.16951 83.245892 C 471.420209 77.377227 474.59506 79.397587 479.790271 89.210764 C 484.889275 99.023941 488.064126 105.854682 489.218618 109.510571 C 490.373109 113.166461 494.125206 114.41716 500.474909 113.166461 C 506.824612 112.108177 514.713636 111.627139 524.045775 112.01197 C 533.377914 112.300592 540.01624 112.974046 543.960752 113.839914 C 548.001472 114.609575 551.561154 110.953686 554.832213 102.968454 C 557.910856 94.983221 561.181915 88.15248 564.452974 82.476231 C 567.820241 76.799982 570.514054 83.3421 572.534414 102.006377 C 574.458567 120.670655 575.805473 136.352497 576.478927 148.955695 C 577.15238 161.6551 579.17274 172.334146 582.540006 180.992831 C 585.811065 189.651517 589.563162 197.059503 593.796298 203.216791 C 597.933225 209.374078 601.877737 214.376874 605.533627 218.032764 C 609.189516 221.688653 613.711274 224.863504 619.002693 227.46111 C 624.294112 230.154923 632.952798 231.50183 644.97875 231.50183 C 657.004702 231.50183 667.491332 229.962508 676.534848 226.980072 C 685.482157 223.997636 692.793936 220.630369 698.470185 216.97448 C 704.146435 213.31859 709.053023 209.277871 713.189951 204.756113 C 717.423086 200.234354 720.694145 195.135351 723.003128 189.459101 C 725.31211 183.87906 726.466602 177.529357 726.466602 170.506201 C 726.466602 163.483045 725.31211 156.652304 723.003128 150.013978 C 720.694145 143.375653 717.134463 136.352497 712.516497 129.040718 C 707.802324 121.632731 703.376774 115.475444 699.047431 110.472648 C 694.62188 105.469852 692.409105 102.968454 692.21669 102.776038 Z M 692.21669 102.776038 " transform="matrix(0.0406023,0,0,0.0406023,-1.187617,7.436432)"/>
<path style="fill-rule:nonzero;fill:rgb(1.176471%,1.176471%,1.176471%);fill-opacity:1;stroke-width:0.5;stroke-linecap:butt;stroke-linejoin:miter;stroke:rgb(1.176471%,1.176471%,1.176471%);stroke-opacity:1;stroke-miterlimit:4;" d="M 963.810793 190.517385 L 964.003209 190.998423 L 964.003209 192.826368 C 964.003209 193.980859 964.099416 194.558105 964.195624 194.846728 L 964.484247 195.039143 L 964.484247 198.021579 L 964.195624 197.829164 C 964.099416 197.636749 963.618378 197.444334 963.041132 197.155711 C 962.367679 197.059503 961.886641 197.348126 961.790433 198.021579 C 961.598018 198.695033 960.635942 199.176071 958.807997 199.464694 L 956.017976 200.041939 L 956.499014 201.196431 C 956.787637 202.062299 957.268675 202.254714 957.845921 201.773676 C 958.230752 201.292638 958.615582 201.485054 958.807997 202.543337 L 959.000412 203.986452 L 956.980053 203.986452 L 956.787637 205.044735 L 956.499014 206.006812 L 956.210392 205.814396 L 955.825561 205.237151 L 955.536938 205.044735 L 954.959693 203.986452 C 954.67107 203.312998 954.286239 203.312998 953.805201 203.794036 L 953.03554 204.46749 L 952.843125 204.756113 L 952.458295 205.044735 L 952.169672 205.237151 L 951.977256 205.525773 L 951.977256 206.006812 L 951.496218 205.814396 C 951.207596 205.621981 947.359291 201.869884 940.047512 194.461897 C 932.639525 187.150119 924.077047 179.645924 914.167663 171.7569 C 904.354486 163.964083 892.617157 155.690228 878.76326 147.223957 C 864.909363 138.757687 849.323729 130.483832 832.006358 122.4986 C 814.688987 114.513368 795.639879 107.009173 774.955241 99.986017 C 754.366811 92.962861 732.142851 86.805574 708.475777 81.514155 C 684.808704 76.126528 660.371969 71.797186 634.973158 68.526127 C 609.670554 65.15886 581.962761 63.042292 552.042192 61.984009 C 522.025415 61.021932 495.18349 61.214348 471.516416 62.465047 C 447.849342 63.811953 423.989853 66.120936 400.034157 69.488203 C 375.982252 72.855469 352.026556 77.377227 327.974651 82.957269 C 304.018955 88.633519 281.98741 94.983221 261.976226 102.006377 C 241.965042 109.029533 223.685594 116.533728 207.041677 124.51896 C 190.301551 132.504192 175.196955 140.681839 161.535474 148.955695 C 147.873992 157.325757 135.367002 166.176858 124.014503 175.508997 C 112.662004 184.841136 103.13745 193.788444 95.537048 202.543337 C 87.840439 211.202023 81.202113 219.764501 75.525864 228.230771 L 66.963386 241.026384 L 66.770971 241.026384 C 66.578555 241.026384 66.38614 241.122592 66.193725 241.507422 L 66.00131 241.98846 L 63.98095 242.180876 L 61.96059 242.469498 L 60.036437 243.046744 L 60.036437 241.026384 L 61.479552 240.833969 C 62.537836 240.641554 61.864382 240.256723 59.459192 239.775685 C 57.150209 239.294647 55.89951 238.043948 55.803302 236.023588 C 55.610887 234.003228 54.937434 231.982868 53.782942 229.962508 L 51.954998 226.980072 L 52.532243 226.787657 C 52.820866 226.595242 53.013281 226.402826 53.013281 226.210411 L 53.013281 226.017996 L 60.806098 214.473082 C 65.905102 206.87268 73.409296 197.732956 83.222473 187.246326 C 93.03565 176.759696 104.003319 166.850311 116.029271 157.518172 C 127.959015 148.186034 141.812912 138.853895 157.494754 129.521756 C 173.176595 120.189617 189.53189 111.627139 206.464431 104.026737 C 223.493179 96.330128 241.195381 89.306972 259.474828 82.957269 C 277.850483 76.703774 298.823743 70.642694 322.490817 64.966445 C 346.157891 59.290195 370.787041 54.67223 396.474475 51.01634 C 422.161909 47.360451 447.175889 44.859053 471.516416 43.512146 C 495.856943 42.165239 522.795076 41.972824 552.52323 43.031108 C 582.155176 43.993184 609.86297 46.205959 635.454196 49.477018 C 661.14163 52.844285 685.866987 57.173628 709.534061 62.465047 C 733.201135 67.852673 756.483378 74.298584 779.476999 81.995193 C 802.470619 89.691802 823.347672 97.86945 842.01195 106.528135 C 860.676228 115.186821 877.12773 124.037922 891.462665 132.98523 C 905.7976 142.028746 916.765269 149.436733 924.173255 155.20919 C 931.773657 161.077854 939.374059 167.523765 946.97446 174.546921 C 954.67107 181.473869 959.289035 185.803212 961.020772 187.534949 C 962.656302 189.170479 963.618378 190.132555 963.810793 190.517385 Z M 963.810793 190.517385 " transform="matrix(0.0406023,0,0,0.0406023,-1.187617,7.436432)"/>
<path style="fill-rule:nonzero;fill:rgb(0.784314%,0.784314%,0.784314%);fill-opacity:1;stroke-width:0.5;stroke-linecap:butt;stroke-linejoin:miter;stroke:rgb(0.784314%,0.784314%,0.784314%);stroke-opacity:1;stroke-miterlimit:4;" d="M 102.75262 428.53503 L 104.003319 426.995708 L 119.973783 440.176152 C 130.652829 449.027253 142.678781 457.878353 155.955432 466.537039 C 169.328291 475.195724 184.529094 483.661995 201.461635 492.032057 C 218.490383 500.305913 237.828114 508.291145 259.474828 515.987754 C 281.121542 523.684363 304.018955 530.322689 327.974651 535.998938 C 352.026556 541.675188 375.982252 546.196946 400.034157 549.468005 C 423.989853 552.835271 447.849342 555.144254 471.516416 556.491161 C 495.18349 557.838068 522.025415 558.030483 552.042192 556.972199 C 581.962761 556.010123 609.670554 553.797348 634.973158 550.526289 C 660.371969 547.159022 684.808704 542.829679 708.475777 537.53826 C 732.142851 532.150634 754.366811 525.993346 774.955241 518.97019 C 795.639879 512.043242 815.073817 504.250425 833.160849 495.784154 C 851.440296 487.221677 867.603176 478.562991 881.841904 469.808098 C 895.888216 460.956997 905.316562 454.703502 910.030735 451.047613 C 914.648701 447.295515 917.342514 445.371363 918.015968 444.986533 L 918.978044 444.505495 L 919.459082 444.216872 L 920.036328 444.024456 L 920.998404 444.216872 L 921.96048 444.505495 L 922.152895 444.794117 L 922.537726 444.986533 L 922.826348 445.178948 L 923.018764 445.467571 L 924.461878 445.756194 L 926.0012 446.044816 L 926.0012 449.027253 L 928.02156 449.027253 L 928.502598 453.16418 C 928.791221 456.050409 929.079844 457.58973 929.176051 457.782146 C 929.368466 457.974561 929.560882 458.359391 929.753297 459.032845 L 930.04192 459.994921 L 930.04192 460.187336 C 930.04192 460.379751 929.657089 460.572167 928.983636 460.764582 L 928.02156 460.956997 L 927.829145 460.475959 C 927.636729 460.187336 927.059484 459.802506 926.193615 459.513883 C 925.423954 459.129052 925.039124 459.321468 925.231539 459.994921 L 925.520162 460.956997 L 925.231539 461.822866 C 925.039124 462.303904 925.039124 462.592527 925.039124 462.784942 L 925.039124 462.977357 L 924.461878 463.169772 C 924.173255 463.362188 923.98084 463.554603 923.98084 463.843226 L 923.98084 464.035641 L 923.788425 464.516679 C 923.596009 464.805302 917.823552 468.846022 906.471054 476.542631 C 895.118555 484.143033 882.226734 491.93585 867.795591 499.824874 C 853.268241 507.617691 836.143285 515.506716 816.516931 523.491948 C 796.79437 531.47718 775.532487 538.788959 752.538866 545.523493 C 729.545246 552.161818 705.300926 557.838068 679.998323 562.456033 C 654.791927 567.170206 629.489324 570.633681 603.994305 573.038871 C 578.691702 575.347854 551.176323 576.502345 521.544377 576.502345 C 491.816223 576.502345 466.802243 575.636477 446.502436 574.000947 C 426.202629 572.365418 403.786254 569.479189 379.541934 565.534677 C 355.201407 561.493957 331.534333 556.491161 308.540713 550.526289 C 285.547092 544.465209 264.477624 538.019298 245.524723 530.996142 C 226.475615 523.972986 208.003753 515.987754 190.012928 507.040446 C 172.022104 497.99693 156.532678 489.338244 143.544649 480.968181 C 130.460413 472.694326 119.204122 464.420471 109.487153 456.242824 L 94.959803 444.024456 L 94.478764 443.832041 L 93.997726 443.543418 L 93.997726 442.773757 C 93.997726 442.581342 94.286349 442.292719 94.767387 441.811681 L 95.537048 441.04202 L 95.152218 440.753397 L 94.959803 440.464775 L 95.152218 440.176152 L 95.537048 439.983737 L 96.018086 437.963377 C 96.306709 436.712678 96.595332 435.461979 96.787747 434.499902 L 96.980162 432.96058 L 99.000522 432.768165 C 100.347429 432.57575 101.020882 432.094712 101.213298 431.228843 C 101.405713 430.362975 101.886751 429.497106 102.75262 428.53503 Z M 964.003209 192.826368 L 964.003209 190.998423 L 975.163292 205.044735 C 982.763694 214.376874 989.209604 223.997636 994.501023 234.003228 C 999.792442 244.00882 1004.121785 254.687866 1007.489052 266.040365 C 1010.856318 277.296656 1012.876678 285.666719 1013.453924 290.958138 C 1014.127377 296.345764 1014.319792 304.138581 1014.03117 314.529004 C 1013.646339 324.823219 1012.203225 335.309849 1009.509412 345.988895 C 1006.815598 356.66794 1002.967294 367.15457 997.964497 377.544993 C 992.961701 387.839208 990.364096 393.323042 989.979265 393.996496 L 989.498227 394.958572 L 989.209604 395.247195 L 988.824774 395.82444 L 988.536151 396.016855 L 987.958905 397.45997 L 987.477867 398.999292 L 987.189244 399.191707 L 986.804414 399.768953 L 986.227168 400.153783 L 986.034753 400.538613 L 985.842338 400.827236 L 985.457507 401.019652 L 984.976469 401.019652 L 985.168884 398.999292 L 985.457507 396.978932 L 985.457507 396.016855 L 985.168884 395.82444 L 984.784054 395.247195 L 984.495431 394.958572 L 984.206808 394.766156 L 984.014393 394.477534 L 984.206808 394.188911 L 984.495431 393.996496 L 984.495431 393.515457 C 984.495431 393.130627 984.303016 391.495097 983.821978 388.512661 C 983.244732 385.530225 982.378863 383.990903 981.031957 383.990903 C 979.68505 383.990903 979.107804 383.70228 979.204012 383.028827 C 979.396427 382.355374 979.588843 381.200882 979.781258 379.469145 C 979.973673 377.833616 979.30022 377.160163 977.953313 377.544993 L 976.029161 378.026031 L 976.221576 376.967747 C 976.413991 376.294294 977.857105 373.311858 980.454711 368.020439 C 983.148524 362.632812 985.842338 355.032411 988.536151 345.026818 C 991.133757 335.021226 992.480663 323.187689 992.480663 309.526208 C 992.480663 295.864726 991.326172 284.512227 989.017189 275.468711 C 986.708206 266.521403 983.148524 257.189264 978.530559 247.472295 C 973.816386 237.851533 968.428759 228.904224 962.175264 220.822785 L 953.03554 208.50821 L 952.843125 208.219587 L 952.458295 208.027171 L 952.169672 206.968888 L 951.977256 206.006812 L 951.977256 205.525773 L 952.169672 205.237151 L 952.458295 205.044735 L 952.843125 204.756113 L 953.03554 204.46749 L 953.805201 203.794036 C 954.286239 203.312998 954.67107 203.312998 954.959693 203.986452 L 955.536938 205.044735 L 955.825561 205.237151 L 956.210392 205.814396 L 956.499014 206.006812 L 956.499014 204.46749 C 956.499014 203.505413 956.402807 202.543337 956.210392 201.485054 L 956.017976 200.041939 L 958.230752 199.464694 C 959.770073 199.176071 960.443527 198.695033 960.154904 198.021579 C 960.058696 197.348126 960.635942 197.059503 961.982849 197.155711 C 963.329755 197.444334 964.099416 197.636749 964.195624 197.829164 L 964.484247 198.021579 L 964.484247 195.039143 L 964.195624 194.846728 C 964.099416 194.558105 964.003209 193.980859 964.003209 192.826368 Z M 958.230752 201.773676 C 958.038336 201.581261 958.038336 201.388846 958.230752 201.196431 C 958.423167 201.100223 958.519374 201.196431 958.519374 201.485054 C 958.519374 201.869884 958.423167 201.966092 958.230752 201.773676 Z M 958.230752 201.773676 " transform="matrix(0.0406023,0,0,0.0406023,-1.187617,7.436432)"/>
<path style="fill-rule:nonzero;fill:rgb(0.784314%,0.784314%,0.784314%);fill-opacity:1;stroke-width:0.5;stroke-linecap:butt;stroke-linejoin:miter;stroke:rgb(0.784314%,0.784314%,0.784314%);stroke-opacity:1;stroke-miterlimit:4;" d="M 52.820866 226.017996 L 53.013281 226.017996 L 53.975358 228.808017 C 54.648811 230.635962 55.129849 232.752529 55.514679 235.15772 C 55.803302 237.755325 57.150209 239.294647 59.459192 239.775685 C 61.864382 240.256723 62.537836 240.641554 61.479552 240.833969 L 60.036437 241.026384 L 60.036437 243.046744 L 61.96059 242.469498 L 63.499912 241.98846 C 64.461988 241.699838 65.327856 241.411215 66.00131 241.218799 L 66.963386 241.026384 L 60.806098 256.034772 C 56.572963 266.040365 53.686735 275.468711 51.954998 284.512227 C 50.319468 293.459536 49.646015 303.36892 50.030845 314.047966 C 50.319468 324.630804 51.85879 335.021226 54.456396 345.026818 C 57.150209 355.032411 61.094721 364.941795 66.193725 374.754972 C 71.388936 384.568149 77.546224 393.996496 84.473172 403.040012 C 91.496328 411.98732 96.402917 418.0484 99.192938 421.223251 C 102.079166 424.398103 103.618488 426.12984 103.810903 426.51467 L 104.003319 426.995708 L 102.75262 428.53503 C 101.886751 429.497106 101.405713 430.362975 101.213298 431.228843 C 101.020882 432.094712 100.347429 432.57575 99.000522 432.768165 L 96.980162 432.96058 L 96.787747 434.499902 C 96.595332 435.461979 96.306709 436.712678 96.018086 437.963377 L 95.537048 439.983737 L 95.152218 440.176152 L 94.959803 440.464775 L 95.152218 440.753397 L 95.537048 441.04202 L 95.537048 444.024456 L 94.959803 444.024456 L 94.478764 443.832041 L 93.997726 443.543418 L 93.997726 442.966173 L 93.516688 442.773757 L 93.03565 442.485135 L 92.843235 442.196512 L 92.458404 442.004096 L 92.169782 441.811681 L 91.784951 441.234436 L 91.496328 441.04202 L 91.207705 440.753397 L 90.822875 440.176152 L 90.245629 439.791321 L 89.957006 439.502698 L 89.764591 439.214076 C 89.572176 439.02166 88.513892 437.963377 86.493532 436.039224 C 84.473172 434.018864 78.989338 427.476746 70.04203 416.509078 C 60.998514 405.54141 53.301904 393.707873 46.952202 381.008467 C 40.698706 368.309062 36.176948 356.66794 33.483135 345.988895 C 30.789322 335.309849 29.538623 322.995274 29.538623 309.04517 C 29.538623 294.998857 30.789322 282.876698 33.483135 272.486275 C 36.176948 262.19206 39.929046 251.994053 44.835634 241.98846 L 51.954998 226.980072 L 52.243621 226.499034 C 52.436036 226.210411 52.628451 226.017996 52.820866 226.017996 Z M 52.820866 226.017996 " transform="matrix(0.0406023,0,0,0.0406023,-1.187617,7.436432)"/>
<path style="fill-rule:nonzero;fill:rgb(1.176471%,1.176471%,1.176471%);fill-opacity:1;stroke-width:0.5;stroke-linecap:butt;stroke-linejoin:miter;stroke:rgb(1.176471%,1.176471%,1.176471%);stroke-opacity:1;stroke-miterlimit:4;" d="M 976.798822 377.544993 L 976.991237 376.967747 L 978.530559 376.967747 C 979.492635 376.967747 979.973673 377.833616 979.781258 379.469145 C 979.588843 381.200882 979.396427 382.355374 979.204012 383.028827 C 979.107804 383.70228 979.68505 383.990903 981.031957 383.990903 C 982.378863 383.990903 983.244732 385.530225 983.821978 388.512661 C 984.303016 391.495097 984.495431 393.130627 984.495431 393.515457 L 984.495431 393.996496 L 984.206808 394.188911 L 984.014393 394.477534 L 984.206808 394.766156 L 984.495431 394.958572 L 984.784054 395.247195 L 984.976469 395.535817 L 986.034753 395.82444 C 986.708206 395.920648 986.996829 396.305478 986.996829 396.978932 L 986.996829 398.037215 L 986.515791 398.229631 C 986.130961 398.422046 986.034753 398.614461 986.034753 398.806876 L 986.034753 398.999292 L 985.842338 398.999292 C 985.553715 398.999292 985.3613 399.287914 985.168884 399.961368 L 984.976469 401.019652 L 984.784054 401.981728 C 984.591639 402.655181 980.454711 407.850392 972.469479 417.471154 C 964.484247 427.188123 955.440731 436.712678 945.242723 446.044816 L 930.04192 459.994921 L 929.753297 459.032845 C 929.560882 458.359391 929.368466 458.359391 929.176051 459.032845 L 928.983636 459.994921 L 928.791221 460.475959 L 928.502598 460.956997 L 928.02156 460.956997 L 927.829145 461.534243 L 927.540522 462.015281 L 927.155691 462.207696 L 926.770861 462.784942 L 926.193615 463.169772 L 926.0012 463.458395 L 925.039124 463.843226 L 923.98084 464.035641 L 923.98084 462.015281 L 925.039124 461.822866 L 926.0012 461.534243 L 925.808785 461.24562 L 925.520162 460.956997 L 925.231539 459.994921 C 925.039124 459.321468 925.327746 459.032845 926.0012 459.032845 C 926.674653 459.032845 927.059484 458.648014 927.155691 457.974561 C 927.444314 457.301108 927.636729 455.665578 927.829145 452.971765 L 928.02156 449.027253 L 926.963276 448.834837 C 926.289823 448.642422 925.327746 448.353799 923.98084 448.161384 C 922.633933 448.065176 922.056687 447.487931 922.152895 446.525854 L 922.537726 444.986533 L 922.152895 444.794117 L 921.96048 444.505495 L 920.998404 444.216872 L 920.036328 444.024456 L 920.036328 443.543418 L 920.228743 443.158588 L 920.805988 442.773757 L 921.190819 442.196512 L 921.479442 442.004096 L 933.505394 431.036428 C 941.490626 423.628442 949.187236 415.354587 956.499014 406.022448 C 963.810793 396.690309 968.813589 389.859568 971.507403 385.530225 C 974.201216 381.200882 975.64433 378.795692 975.836746 378.507069 L 976.029161 378.026031 L 976.221576 378.026031 C 976.413991 378.026031 976.606406 377.833616 976.798822 377.544993 Z M 976.798822 377.544993 " transform="matrix(0.0406023,0,0,0.0406023,-1.187617,7.436432)"/>
</g>
</svg>
